<svg width="48" height="48" viewBox="0 0 48 48" fill="none" xmlns="http://www.w3.org/2000/svg">
<g id="download" clip-path="url(#clip0_12_13)">
<path id="base" d="M6 48C4.35 48 2.938 47.413 1.764 46.239C0.587999 45.063 0 43.65 0 42V36C0 35.15 0.287001 34.437 0.861001 33.861C1.437 33.287 2.15 33 3 33C3.85 33 4.563 33.287 5.139 33.861C5.713 34.437 6 35.15 6 36V42H42V36C42 35.15 42.288 34.437 42.864 33.861C43.438 33.287 44.15 33 45 33C45.85 33 46.562 33.287 47.136 33.861C47.712 34.437 48 35.15 48 36V42C48 43.65 47.413 45.063 46.239 46.239C45.063 47.413 43.65 48 42 48H6Z" fill="white"/>
<path id="arrow" d="M22.875 34.536C23.225 34.662 23.6 34.725 24 34.725C24.4 34.725 24.775 34.662 25.125 34.536C25.475 34.412 25.8 34.2 26.1 33.9L36.9 23.1C37.45 22.55 37.725 21.85 37.725 21C37.725 20.15 37.45 19.45 36.9 18.9C36.35 18.35 35.638 18.062 34.764 18.036C33.888 18.012 33.175 18.275 32.625 18.825L27 24.45V3C27 2.15 26.713 1.437 26.139 0.861001C25.563 0.287001 24.85 0 24 0C23.15 0 22.438 0.287001 21.864 0.861001C21.288 1.437 21 2.15 21 3V24.45L15.375 18.825C14.825 18.275 14.112 18.012 13.236 18.036C12.362 18.062 11.65 18.35 11.1 18.9C10.55 19.45 10.275 20.15 10.275 21C10.275 21.85 10.55 22.55 11.1 23.1L21.9 33.9C22.2 34.2 22.525 34.412 22.875 34.536Z" fill="white"/>
</g>
<defs>
<clipPath id="clip0_12_13">
<rect width="48" height="48" fill="white"/>
</clipPath>
</defs>
</svg>
