<svg width="48" height="48" viewBox="0 0 48 48" fill="none" xmlns="http://www.w3.org/2000/svg">
<g id="upload" clip-path="url(#clip0_12_17)">
<path id="base" d="M6 48C4.35 48 2.938 47.4095 1.764 46.2286C0.587999 45.0457 0 43.6244 0 41.9647V35.9294C0 35.0744 0.287001 34.3572 0.861001 33.7778C1.437 33.2004 2.15 32.9117 3 32.9117C3.85 32.9117 4.563 33.2004 5.139 33.7778C5.713 34.3572 6 35.0744 6 35.9294V41.9647H42V35.9294C42 35.0744 42.288 34.3572 42.864 33.7778C43.438 33.2004 44.15 32.9117 45 32.9117C45.85 32.9117 46.562 33.2004 47.136 33.7778C47.712 34.3572 48 35.0744 48 35.9294V41.9647C48 43.6244 47.413 45.0457 46.239 46.2286C45.063 47.4095 43.65 48 42 48H24H6Z" fill="white"/>
<path id="arrow" d="M21.864 34.0603C22.438 34.6397 23.15 34.9294 24 34.9294C24.85 34.9294 25.563 34.6397 26.139 34.0603C26.713 33.4829 27 32.7667 27 31.9117V10.3355L32.625 15.9936C33.225 16.5971 33.938 16.8858 34.764 16.8596C35.588 16.8355 36.3 16.5217 36.9 15.9181C37.45 15.3649 37.737 14.6729 37.761 13.842C37.787 13.0131 37.5 12.297 36.9 11.6934L26.1 0.829854C25.8 0.528089 25.475 0.313836 25.125 0.187094C24.775 0.0623643 24.4 0 24 0C23.6 0 23.225 0.0623643 22.875 0.187094C22.525 0.313836 22.2 0.528089 21.9 0.829854L11.1 11.6934C10.55 12.2467 10.263 12.9377 10.239 13.7666C10.213 14.5974 10.5 15.3146 11.1 15.9181C11.75 16.572 12.475 16.8989 13.275 16.8989C14.075 16.8989 14.775 16.5971 15.375 15.9936L21 10.3355V31.9117C21 32.7667 21.288 33.4829 21.864 34.0603Z" fill="white"/>
</g>
<defs>
<clipPath id="clip0_12_17">
<rect width="48" height="48" fill="white"/>
</clipPath>
</defs>
</svg>
